<?xml version="1.0"?>
<svg xmlns="http://www.w3.org/2000/svg" viewBox="0 0 512 512" width="512" height="512"><g id="Outline"><path d="M210.971,152.572l-5.942,14.856,15,6A16.007,16.007,0,1,0,247,178.493l3.968-9.921Z"/><path d="M301.029,152.572l-40,16L265,178.493a16,16,0,1,0,26.979-5.067l15-6Z"/><path d="M229.323,216.242l5.354,15.077a63.055,63.055,0,0,1,42.646,0l5.354-15.077A78.86,78.86,0,0,0,229.323,216.242Z"/><path d="M472,16H408a24.027,24.027,0,0,0-24,24v64a24.027,24.027,0,0,0,24,24h72v89.56a24.013,24.013,0,0,1-8.121,18L346.707,346A8,8,0,0,0,344,352V496h16V355.61L482.465,247.553A40.019,40.019,0,0,0,496,217.56V40A24.027,24.027,0,0,0,472,16Zm-64,96a8.009,8.009,0,0,1-8-8V94.624A23.885,23.885,0,0,0,408,96h16a16.019,16.019,0,0,1,16,16ZM451.7,96H472a23.885,23.885,0,0,0,8-1.376V112H456A31.793,31.793,0,0,0,451.7,96ZM472,80h-8V56H448V80H432V56H416V80h-8a8.009,8.009,0,0,1-8-8V40a8.009,8.009,0,0,1,8-8h64a8.009,8.009,0,0,1,8,8V72A8.009,8.009,0,0,1,472,80Z"/><path d="M424,200V144H408v52.155L333.193,256H315.739A47.806,47.806,0,0,0,328,224V208a32,32,0,0,0,0-64V118.987A32.056,32.056,0,0,0,352,88V72a8,8,0,0,0-8-8H232a48.069,48.069,0,0,0-47.321,40h-1.613a23.875,23.875,0,0,1-18.734-9,72.046,72.046,0,0,0-68.053-26.04L76.055,72.327a8,8,0,0,0-6.576,9.206L74.738,113.1a8,8,0,0,0,9.207,6.576l20.226-3.37a23.924,23.924,0,0,1,4.1-.313A58.771,58.771,0,0,0,81.1,127.178l-7.5,5.62A8,8,0,0,0,72,144l19.2,25.6a8,8,0,0,0,11.2,1.6l7.5-5.621a11.366,11.366,0,0,1,14.785,1.046,58.591,58.591,0,0,0,27.948,15.707A32.053,32.053,0,0,0,184,208v16a47.729,47.729,0,0,0,3.775,18.687l14.737-6.234A31.776,31.776,0,0,1,200,224V152H312v72a32.036,32.036,0,0,1-32,32H172.518a64.4,64.4,0,0,0-27.25,6.091L34.375,314.276A32.131,32.131,0,0,0,16,343.23V488a8,8,0,0,0,8,8H80a8,8,0,0,0,8-8V472h8a8,8,0,0,0,8-8V440a8,8,0,0,0-2.343-5.657L88,420.686v-47.27l64-25.6V496h16V336a8,8,0,0,0-10.971-7.428l-80,32A8,8,0,0,0,72,368v48H32V343.23a16.064,16.064,0,0,1,9.188-14.477L152.08,276.568A48.322,48.322,0,0,1,172.518,272h47.2l12.145,18.219-7.851,141.337a8,8,0,0,0,2.33,6.1l24,24a8,8,0,0,0,11.314,0l24-24a8,8,0,0,0,2.294-6.54l-15.679-141.1L284.281,272H336a8,8,0,0,0,5-1.753l80-64A8,8,0,0,0,424,200Zm-80-24a16.019,16.019,0,0,1-16,16V160A16.019,16.019,0,0,1,344,176ZM232,80H336v8a16.019,16.019,0,0,1-16,16H201.013A32.054,32.054,0,0,1,232,80ZM101.54,100.521l-12.334,2.055-2.63-15.782L98.91,84.738a56.028,56.028,0,0,1,52.928,20.253A39.8,39.8,0,0,0,183.066,120H184v16h-.934a55.719,55.719,0,0,1-43.722-21.014,40,40,0,0,0-37.8-14.465ZM100.3,152.778l-1.1.825-9.6-12.8,1.1-.825A43.508,43.508,0,0,1,147.312,144a27.113,27.113,0,0,0,15.82,7.774,32.091,32.091,0,0,0-9.529,14.246A42.866,42.866,0,0,1,136,155.313,27.443,27.443,0,0,0,100.3,152.778ZM168,176a16.019,16.019,0,0,1,16-16v32A16.019,16.019,0,0,1,168,176Zm32-40V120H312v16ZM76.687,432,88,443.313V456H80a8,8,0,0,0-8,8v16H32V432ZM256,444.686l-15.813-15.813,7.8-140.429a7.994,7.994,0,0,0-1.331-4.882L238.948,272h26.1l-7.708,11.562a8,8,0,0,0-1.3,5.321l15.575,140.179Z"/></g></svg>
