<svg id="Outline-Expanded" enable-background="new 0 0 64 64" height="512" viewBox="0 0 64 64" width="512" xmlns="http://www.w3.org/2000/svg"><path d="m16.99 35.75c1.82-1.27 3.01-3.37 3.01-5.75h3v-2h-3.29c-.86-2.89-3.54-5-6.71-5-3.86 0-7 3.14-7 7 0 2.38 1.19 4.48 3.01 5.75-4.1 1.6-7.01 5.59-7.01 10.25v4c0 .55.45 1 1 1h20c.55 0 1-.45 1-1v-4c0-4.66-2.91-8.65-7.01-10.25zm-3.99-10.75c2.05 0 3.81 1.24 4.59 3h-9.18c.78-1.76 2.54-3 4.59-3zm-5 5h10c0 2.76-2.24 5-5 5s-5-2.24-5-5zm14 19h-18v-3c0-4.96 4.04-9 9-9s9 4.04 9 9z"/><path d="m47 14h-8v-12c0-.55-.45-1-1-1h-20c-.55 0-1 .45-1 1v17c0 .55.45 1 1 1h4v5c0 .4.24.77.62.92.12.06.25.08.38.08.26 0 .52-.1.71-.29l2.29-2.29v6.58c0 .55.45 1 1 1h7.59l5.7 5.71c.19.19.45.29.71.29.13 0 .26-.02.38-.08.38-.15.62-.52.62-.92v-5h5c.55 0 1-.45 1-1v-15c0-.55-.45-1-1-1zm-23 8.59v-3.59c0-.55-.45-1-1-1h-4v-15h18v14c0 .55-.45 1-1 1h-7c-.27 0-.52.11-.71.29zm22 6.41h-5c-.55 0-1 .45-1 1v3.59l-4.29-4.3c-.19-.18-.44-.29-.71-.29h-7v-7.59l1.41-1.41h6.59c1.65 0 3-1.35 3-3v-1h7z"/><path d="m54.99 46.75c1.82-1.27 3.01-3.37 3.01-5.75 0-3.86-3.14-7-7-7s-7 3.14-7 7c0 2.38 1.19 4.48 3.01 5.75-4.1 1.6-7.01 5.59-7.01 10.25v4c0 .55.45 1 1 1h20c.55 0 1-.45 1-1v-4c0-4.66-2.91-8.65-7.01-10.25zm-8.99-5.75c0-2.76 2.24-5 5-5s5 2.24 5 5-2.24 5-5 5-5-2.24-5-5zm14 19h-18v-3c0-4.96 4.04-9 9-9s9 4.04 9 9z"/><path d="m29 12h-2v-2c0-.459.312-.859.757-.97l3.243-.811v-1.219h-6v1h-2v-2c0-.552.448-1 1-1h8c.552 0 1 .448 1 1v3c0 .459-.312.859-.757.97l-3.243.811z"/><path d="m27 14h2v2h-2z"/><path d="m35 27c-.256 0-.512-.098-.707-.293l-3-3 1.414-1.414 2.293 2.293 6.293-6.293 1.414 1.414-7 7c-.195.195-.451.293-.707.293z"/><path d="m50 50h2v2h-2z"/><path d="m50 54h2v2h-2z"/></svg>